<svg width="77" height="49" viewBox="0 0 77 49" fill="none" xmlns="http://www.w3.org/2000/svg">
<path d="M70.2 43.4919L66.6973 39.6973L63.1946 43.4919H41.4486V25.9784H34.4432L43.2 6.27568H51.6649L54.7297 12.9892V6.27568H65.2378L66.9892 11.3838L68.7405 6.27568H76.6216V3.21081C76.6216 1.45946 75.1622 0 73.4108 0H3.21081C1.45946 0 0 1.45946 0 3.21081V45.6811C0 47.4324 1.45946 48.8919 3.21081 48.8919H73.2649C75.0162 48.8919 76.4757 47.4324 76.4757 45.6811V43.4919H70.2Z" fill="#0071CE"/>
<path d="M71.2216 41.5946H76.6216L69.4703 33.8595L76.6216 26.2703H71.2216L66.8432 31.0865L62.3189 26.2703H56.773L64.0703 33.8595L56.773 41.5946H62.173L66.6973 36.6324L71.2216 41.5946Z" fill="#0071CE"/>
<path d="M48.0162 37.9459V35.6108H56.627V32.1081H48.0162V29.773H56.773V26.2703H43.7838V41.5946H56.773V37.9459H48.0162Z" fill="#0071CE"/>
<path d="M72.5351 23.9351H76.6216V8.61081H70.2L66.8432 18.2432L63.3405 8.61081H56.773V23.9351H61.0054V13.2811L64.9459 23.9351H68.5946L72.5351 13.2811V23.9351Z" fill="#0071CE"/>
<path d="M50.0595 8.61081H44.6595L37.9459 23.9351H42.6162L43.9297 20.8703H50.9351L52.2486 23.9351H56.9189L50.0595 8.61081ZM45.2432 17.5135L47.2865 12.5514L49.3297 17.5135H45.2432Z" fill="#0071CE"/>
<path d="M72.827 33.4216L76.6216 37.6541L76.7676 29.1892L72.827 33.4216Z" fill="#0071CE"/>
</svg>
