<svg width="134" height="44" viewBox="0 0 134 44" fill="none" xmlns="http://www.w3.org/2000/svg">
<path fill-rule="evenodd" clip-rule="evenodd" d="M66.5255 1.35303L57.629 42.9434H46.8706L55.7704 1.35303H66.5255ZM111.791 28.2065L117.454 12.5908L120.713 28.2065H111.791ZM123.795 42.9434H133.746L125.06 1.35303H115.876C113.811 1.35303 112.069 2.55504 111.297 4.4043L95.1526 42.9434H106.45L108.693 36.7305H122.496L123.795 42.9434ZM95.7142 29.3638C95.76 18.3872 80.5357 17.7827 80.6404 12.8794C80.673 11.3871 82.0941 9.80049 85.2039 9.39502C86.7456 9.19308 90.993 9.03899 95.8105 11.2563L97.7001 2.43701C95.1116 1.49764 91.781 0.593262 87.6365 0.593262C77.0021 0.593262 69.5185 6.24669 69.4552 14.3413C69.3866 20.3288 74.797 23.6697 78.8729 25.6592C83.0662 27.6969 84.4731 29.0059 84.4574 30.8286C84.4273 33.6188 81.1129 34.8502 78.0151 34.8984C72.6077 34.9814 69.4697 33.435 66.9679 32.272L65.0182 41.3833C67.532 42.5367 72.1719 43.5431 76.9828 43.5933C88.2859 43.5933 95.6794 38.0102 95.7142 29.3638ZM51.153 1.35303L33.7216 42.9434H22.349L13.7709 9.75244C13.2499 7.70783 12.7976 6.95928 11.2137 6.09814C8.62803 4.69491 4.35744 3.37919 0.600586 2.56201L0.855713 1.35303H19.1627C21.4962 1.35303 23.5938 2.90629 24.1235 5.59375L28.6539 29.6602L39.8508 1.35303H51.153Z" fill="#1434CB"/>
</svg>
