<svg width="80" height="53" viewBox="0 0 80 53" fill="none" xmlns="http://www.w3.org/2000/svg">
<path d="M79.8096 0.0932617H0.269043V52.6338H79.8096V0.0932617Z" fill="white"/>
<path d="M50.4744 9.28786H29.4582V43.5852H50.4744V9.28786Z" fill="#FF5F00"/>
<path d="M31.6474 26.5095C31.6474 19.796 34.7123 13.5203 39.9663 9.4338C30.4799 1.99056 16.7609 3.59596 9.31769 13.0825C1.87445 22.5689 3.47985 36.2879 12.9663 43.7311C20.8474 50.0068 31.9393 50.0068 39.9663 43.7311C34.7123 39.4987 31.6474 33.077 31.6474 26.5095Z" fill="#EB001B"/>
<path d="M73.0961 39.9365V39.2068H73.388V39.0608H72.6582V39.2068H72.9501L73.0961 39.9365ZM74.5555 39.9365V39.0608H74.4096L74.1177 39.6446L73.8258 39.0608H73.6799V39.9365H73.8258V39.3527L74.1177 39.9365H74.2636L74.5555 39.3527V39.9365Z" fill="#F79E1B"/>
<path d="M75.2853 26.5095C75.2853 38.477 65.5069 48.2554 53.5393 48.2554C48.7231 48.2554 43.9069 46.65 40.1123 43.5852C49.5988 36.1419 51.2042 22.423 43.7609 12.9365C42.7393 11.623 41.4258 10.3095 40.1123 9.28786C49.5988 1.84461 63.3177 3.45002 70.7609 12.9365C73.5339 16.7311 75.2853 21.5473 75.2853 26.5095Z" fill="#F79E1B"/>
</svg>
