<svg width="78" height="51" viewBox="0 0 78 51" fill="none" xmlns="http://www.w3.org/2000/svg">
<path d="M0.628906 0.611816H77.9471V50.1258H0.628906V0.611816Z" fill="white"/>
<path fill-rule="evenodd" clip-rule="evenodd" d="M71.0203 0.609375H7.5273C7.26281 0.609375 6.99786 0.609375 6.73384 0.610777C6.51094 0.612646 6.28804 0.614982 6.06561 0.621057C5.5801 0.634141 5.09038 0.662646 4.61141 0.749095C4.12403 0.836478 3.67075 0.979468 3.2287 1.2047C2.79365 1.42573 2.39599 1.71498 2.05113 2.05984C1.7058 2.40517 1.41655 2.80237 1.19552 3.23741C0.970287 3.67994 0.827296 4.13321 0.74038 4.62059C0.653464 5.1005 0.62496 5.58975 0.611876 6.0748C0.605801 6.29769 0.602997 6.52012 0.601595 6.74255C0.600586 7.00704 0.600586 7.27152 0.600586 7.53648V43.1991C0.600586 43.464 0.600586 43.7276 0.601595 43.993C0.602997 44.2155 0.605801 44.4383 0.611876 44.6608C0.62496 45.1458 0.653464 45.6346 0.74038 46.1145C0.827296 46.6024 0.970287 47.0552 1.19552 47.4977C1.41655 47.9327 1.7058 48.3304 2.05113 48.6748C2.39599 49.0211 2.79365 49.3098 3.2287 49.5304C3.67075 49.7561 4.12403 49.8991 4.61141 49.9869C5.09038 50.0725 5.5801 50.1014 6.06561 50.1145C6.28804 50.1197 6.51094 50.1229 6.73384 50.1239C6.99786 50.1257 7.26281 50.1257 7.5273 50.1257H71.0203C71.2843 50.1257 71.5493 50.1257 71.8133 50.1239C72.0357 50.1229 72.2586 50.1197 72.482 50.1145C72.9666 50.1014 73.4558 50.0725 73.9366 49.9869C74.4231 49.8991 74.8764 49.7561 75.3184 49.5304C75.7539 49.3098 76.1507 49.0211 76.4965 48.6748C76.8409 48.3304 77.1296 47.9327 77.3516 47.4977C77.5768 47.0552 77.7203 46.6024 77.8072 46.1145C77.8937 45.6346 77.9217 45.1458 77.9348 44.6608C77.9409 44.4383 77.9441 44.2155 77.9451 43.993C77.9469 43.7276 77.9469 43.464 77.9469 43.1991V7.53648C77.9469 7.27152 77.9469 7.00704 77.9451 6.74255C77.9441 6.52012 77.9409 6.29769 77.9348 6.0748C77.9217 5.58975 77.8937 5.1005 77.8072 4.62059C77.7203 4.13321 77.5768 3.67994 77.3516 3.23741C77.1296 2.80237 76.8409 2.40517 76.4965 2.05984C76.1507 1.71498 75.7539 1.42573 75.3184 1.2047C74.8764 0.979468 74.4231 0.836478 73.9366 0.749095C73.4558 0.662646 72.9666 0.634141 72.482 0.621057C72.2586 0.614982 72.0357 0.612646 71.8133 0.610777C71.5493 0.609375 71.2843 0.609375 71.0203 0.609375Z" fill="#000003"/>
<path fill-rule="evenodd" clip-rule="evenodd" d="M71.0206 2.26001L71.8015 2.26141C72.0132 2.26281 72.2248 2.26515 72.4374 2.27122C72.8075 2.28104 73.2407 2.30113 73.6445 2.37356C73.9949 2.43665 74.2893 2.53291 74.5716 2.67636C74.8505 2.81795 75.1057 3.00347 75.3286 3.22636C75.5524 3.45066 75.7384 3.70627 75.8818 3.98805C76.0248 4.26842 76.1202 4.56094 76.1832 4.91422C76.2552 5.31375 76.2748 5.74786 76.2856 6.11982C76.2912 6.33057 76.2935 6.54038 76.2949 6.7558C76.2968 7.01562 76.2968 7.2759 76.2968 7.53665V43.1993C76.2968 43.46 76.2968 43.7198 76.2945 43.9852C76.2935 44.1955 76.2912 44.4058 76.2856 44.6166C76.2748 44.9885 76.2552 45.4217 76.1823 45.8259C76.1202 46.1745 76.0248 46.4675 75.8814 46.7488C75.7379 47.0301 75.5524 47.2857 75.3295 47.5081C75.1052 47.7324 74.851 47.9175 74.5688 48.0605C74.2884 48.2035 73.9949 48.2997 73.6473 48.3619C73.2356 48.4357 72.7851 48.4558 72.4449 48.4647C72.2314 48.4698 72.0188 48.4726 71.8005 48.4736C71.5412 48.4759 71.2804 48.4759 71.0206 48.4759H7.52763C7.52436 48.4759 7.52109 48.4759 7.51735 48.4759C7.26081 48.4759 7.00333 48.4759 6.74212 48.4736C6.52903 48.4726 6.31595 48.4698 6.11034 48.4651C5.76315 48.4558 5.31174 48.4357 4.90333 48.3623C4.55333 48.2997 4.25941 48.2035 3.9753 48.0586C3.69632 47.917 3.44165 47.7324 3.21735 47.5072C2.99492 47.2852 2.80988 47.0306 2.66689 46.7488C2.52343 46.468 2.42763 46.174 2.36455 45.8212C2.29212 45.4184 2.27203 44.9862 2.26221 44.6166C2.25614 44.4053 2.2538 44.1937 2.2524 43.9834L2.25146 43.3633V7.37263L2.2524 6.75347C2.2538 6.54225 2.25614 6.33104 2.26221 6.11936C2.27203 5.74973 2.29212 5.31749 2.36548 4.91094C2.42763 4.56141 2.52343 4.26795 2.66735 3.98524C2.80941 3.7058 2.99492 3.45066 3.21875 3.22683C3.44165 3.00393 3.69679 2.81842 3.97763 2.6759C4.25847 2.53291 4.55287 2.43665 4.90333 2.37356C5.30707 2.30113 5.74025 2.28104 6.11128 2.27122C6.32249 2.26515 6.53417 2.26281 6.74399 2.26141L7.52763 2.26001H71.0206Z" fill="#FFFFFE"/>
<path fill-rule="evenodd" clip-rule="evenodd" d="M21.7158 17.2637C22.3784 16.4356 22.8275 15.3235 22.7093 14.187C21.7397 14.2352 20.5565 14.8263 19.8714 15.6553C19.2565 16.3651 18.7126 17.524 18.8541 18.6132C19.9425 18.7071 21.0298 18.0693 21.7158 17.2637Z" fill="#000003"/>
<path fill-rule="evenodd" clip-rule="evenodd" d="M22.6965 18.8254C21.1161 18.7314 19.7722 19.7226 19.0175 19.7226C18.2624 19.7226 17.1068 18.873 15.8568 18.8959C14.2297 18.9198 12.7199 19.8399 11.8946 21.3029C10.196 24.2296 11.446 28.5716 13.0979 30.9553C13.8993 32.1347 14.8661 33.4328 16.1395 33.3866C17.3427 33.3394 17.8142 32.6076 19.2769 32.6076C20.7385 32.6076 21.1633 33.3866 22.4371 33.3632C23.7582 33.3394 24.5839 32.1828 25.3857 31.0025C26.3058 29.6581 26.682 28.36 26.7058 28.2885C26.682 28.2646 24.1591 27.2969 24.1357 24.3945C24.1114 21.9642 26.1166 20.8081 26.211 20.7366C25.0787 19.0618 23.31 18.873 22.6965 18.8254Z" fill="#000003"/>
<path fill-rule="evenodd" clip-rule="evenodd" d="M32.5684 24.8848H35.7212C38.1138 24.8848 39.475 23.5969 39.475 21.3642C39.475 19.1315 38.1138 17.8553 35.7334 17.8553H32.5684V24.8848ZM36.4577 15.5366C39.8927 15.5366 42.2843 17.9044 42.2843 21.3516C42.2843 24.8114 39.8432 27.1918 36.3712 27.1918H32.5684V33.2394H29.8203V15.5366H36.4577Z" fill="#000003"/>
<path fill-rule="evenodd" clip-rule="evenodd" d="M51.3328 28.4057V27.3879L48.1557 27.5842C46.573 27.6945 45.6772 28.3936 45.6772 29.4978C45.6772 30.6263 46.6099 31.3622 48.0328 31.3622C49.8852 31.3622 51.3328 30.0865 51.3328 28.4057ZM43.0029 29.5711C43.0029 27.3136 44.7324 25.9277 47.8001 25.7557L51.3328 25.5473V24.5538C51.3328 23.1183 50.3637 22.2599 48.7445 22.2599C47.2109 22.2599 46.2539 22.9954 46.0207 24.1487H43.5183C43.6655 21.8179 45.6529 20.1001 48.8426 20.1001C51.9712 20.1001 53.9707 21.7566 53.9707 24.345V33.2393H51.431V31.1169H51.3702C50.6216 32.5524 48.9898 33.4604 47.2969 33.4604C44.7697 33.4604 43.0029 31.8898 43.0029 29.5711Z" fill="#000003"/>
<path fill-rule="evenodd" clip-rule="evenodd" d="M56.368 37.9875V35.8403C56.5638 35.8893 57.0053 35.8893 57.2264 35.8893C58.453 35.8893 59.1156 35.3739 59.5203 34.0491C59.5203 34.0248 59.7535 33.2641 59.7535 33.2515L55.0918 20.3333H57.9624L61.2259 30.8351H61.275L64.5385 20.3333H67.3357L62.5016 33.9141C61.3974 37.0431 60.1217 38.0487 57.4474 38.0487C57.2264 38.0487 56.5638 38.0239 56.368 37.9875Z" fill="#000003"/>
</svg>
