<svg width="98" height="52" viewBox="0 0 98 52" fill="none" xmlns="http://www.w3.org/2000/svg">
<path d="M71.76 0H26C11.7 0 0 11.7 0 26C0 40.3 11.7 52 26 52H71.76C86.06 52 97.76 40.3 97.76 26C97.76 11.7 86.06 0 71.76 0Z" fill="white"/>
<path d="M71.76 2.106C74.971 2.106 78.091 2.743 81.029 3.991C83.876 5.2 86.424 6.929 88.634 9.126C90.831 11.323 92.56 13.884 93.769 16.731C95.017 19.669 95.654 22.789 95.654 26C95.654 29.211 95.017 32.331 93.769 35.269C92.56 38.116 90.831 40.664 88.634 42.874C86.437 45.071 83.876 46.8 81.029 48.009C78.091 49.257 74.971 49.894 71.76 49.894H26C22.789 49.894 19.669 49.257 16.731 48.009C13.884 46.8 11.336 45.071 9.126 42.874C6.929 40.677 5.2 38.116 3.991 35.269C2.743 32.331 2.106 29.211 2.106 26C2.106 22.789 2.743 19.669 3.991 16.731C5.2 13.884 6.929 11.336 9.126 9.126C11.323 6.929 13.884 5.2 16.731 3.991C19.669 2.743 22.789 2.106 26 2.106H71.76ZM71.76 0H26C11.7 0 0 11.7 0 26C0 40.3 11.7 52 26 52H71.76C86.06 52 97.76 40.3 97.76 26C97.76 11.7 86.06 0 71.76 0Z" fill="#3C4043"/>
<path d="M46.618 35.711H44.122V16.289H50.739C52.416 16.289 53.846 16.848 55.016 17.966C56.212 19.084 56.81 20.449 56.81 22.061C56.81 23.712 56.212 25.077 55.016 26.182C53.859 27.287 52.429 27.833 50.739 27.833H46.618V35.711ZM46.618 18.681V25.454H50.791C51.779 25.454 52.611 25.116 53.261 24.453C53.924 23.79 54.262 22.984 54.262 22.074C54.262 21.177 53.924 20.384 53.261 19.721C52.611 19.032 51.792 18.694 50.791 18.694H46.618V18.681Z" fill="#3C4043"/>
<path d="M63.336 21.983C65.182 21.983 66.638 22.477 67.704 23.465C68.77 24.453 69.303 25.805 69.303 27.521V35.711H66.924V33.865H66.82C65.793 35.386 64.415 36.14 62.699 36.14C61.23 36.14 60.008 35.711 59.02 34.84C58.032 33.969 57.538 32.89 57.538 31.59C57.538 30.212 58.058 29.12 59.098 28.314C60.138 27.495 61.529 27.092 63.258 27.092C64.74 27.092 65.962 27.365 66.911 27.911V27.339C66.911 26.468 66.573 25.74 65.884 25.129C65.195 24.518 64.389 24.219 63.466 24.219C62.075 24.219 60.97 24.804 60.164 25.987L57.967 24.609C59.176 22.854 60.97 21.983 63.336 21.983ZM60.112 31.629C60.112 32.279 60.385 32.825 60.944 33.254C61.49 33.683 62.14 33.904 62.881 33.904C63.934 33.904 64.87 33.514 65.689 32.734C66.508 31.954 66.924 31.044 66.924 29.991C66.144 29.38 65.065 29.068 63.674 29.068C62.66 29.068 61.815 29.315 61.139 29.796C60.45 30.303 60.112 30.914 60.112 31.629Z" fill="#3C4043"/>
<path d="M82.875 22.412L74.555 41.548H71.981L75.075 34.853L69.589 22.412H72.306L76.258 31.954H76.31L80.158 22.412H82.875Z" fill="#3C4043"/>
<path d="M36.6899 26.26C36.6899 25.4462 36.6171 24.6675 36.4819 23.9187H26.0195V28.2087L32.045 28.21C31.8006 29.6374 31.0141 30.8542 29.809 31.6654V34.4487H33.3957C35.49 32.5104 36.6899 29.6452 36.6899 26.26Z" fill="#4285F4"/>
<path d="M29.8103 31.6654C28.8119 32.3388 27.5262 32.7327 26.0221 32.7327C23.1166 32.7327 20.6518 30.7749 19.7691 28.1359H16.0693V31.0063C17.9023 34.6437 21.6697 37.1397 26.0221 37.1397C29.0303 37.1397 31.5575 36.1504 33.397 34.4474L29.8103 31.6654Z" fill="#34A853"/>
<path d="M19.4207 26.0065C19.4207 25.2655 19.5442 24.5492 19.7691 23.8758V21.0054H16.0693C15.3114 22.5095 14.885 24.2073 14.885 26.0065C14.885 27.8057 15.3127 29.5035 16.0693 31.0076L19.7691 28.1372C19.5442 27.4638 19.4207 26.7475 19.4207 26.0065Z" fill="#FABB05"/>
<path d="M26.0221 19.279C27.664 19.279 29.1343 19.8445 30.2952 20.9495L33.4737 17.7736C31.5432 15.9757 29.0264 14.872 26.0221 14.872C21.671 14.872 17.9023 17.368 16.0693 21.0054L19.7691 23.8758C20.6518 21.2368 23.1166 19.279 26.0221 19.279Z" fill="#E94235"/>
</svg>
