<svg width="40" height="40" viewBox="0 0 40 40" fill="none" xmlns="http://www.w3.org/2000/svg">
<path d="M40 20C40 31.0457 31.0457 40 20 40C8.9543 40 0 31.0457 0 20C0 8.9543 8.9543 0 20 0C31.0457 0 40 8.9543 40 20Z" fill="white"/>
<path d="M28.9862 14.2529C28.9862 19.3314 24.8692 23.4483 19.7908 23.4483C14.7123 23.4483 10.5954 19.3314 10.5954 14.2529C10.5954 9.17439 14.7123 5.05747 19.7908 5.05747C24.8692 5.05747 28.9862 9.17439 28.9862 14.2529Z" fill="#0047FF"/>
<path d="M6.89655 35.0919C8.87482 29.8974 13.9018 26.2069 19.7908 26.2069C25.7916 26.2069 30.8975 30.0392 32.7945 35.3898C29.3299 38.2688 24.8774 40 20.0207 40C14.9987 40 10.409 38.1489 6.89655 35.0919Z" fill="#0047FF"/>
</svg>
