<svg width="40" height="40" viewBox="0 0 40 40" fill="none" xmlns="http://www.w3.org/2000/svg">
<g clip-path="url(#clip0_6_386)">
<path d="M19.9999 20.0627C19.9999 20.4627 19.8801 20.8626 19.66 21.1625L9.65992 36.1625C9.29993 36.7026 8.70008 37.0626 7.99988 37.0626H1.99988C0.900147 37.0626 0 36.1625 0 35.0628C0 34.6625 0.120117 34.2626 0.339844 33.9627L9.59986 20.0627L0.339844 6.16248C0.120117 5.86255 0 5.46265 0 5.06274C0 3.96265 0.900147 3.0625 1.99988 3.0625H7.99988C8.70008 3.0625 9.29993 3.42249 9.65992 3.96265L19.66 18.9627C19.8801 19.2626 19.9999 19.6625 19.9999 20.0627V20.0627Z" fill="#0047FF"/>
<path d="M40.0002 20.0627C40.0002 20.4627 39.8801 20.8626 39.66 21.1625L29.6603 36.1625C29.3003 36.7026 28.7001 37.0626 28.0002 37.0626H22.0002C20.9001 37.0626 20 36.1625 20 35.0628C20 34.6625 20.1201 34.2626 20.3402 33.9627L29.6002 20.0627L20.3402 6.16248C20.1201 5.86255 20 5.46265 20 5.06274C20 3.96265 20.9001 3.0625 22.0002 3.0625H28.0002C28.7001 3.0625 29.3003 3.42249 29.6603 3.96265L39.66 18.9627C39.8801 19.2626 40.0002 19.6625 40.0002 20.0627V20.0627Z" fill="#0047FF"/>
</g>
<defs>
<clipPath id="clip0_6_386">
<rect width="40" height="40" fill="white"/>
</clipPath>
</defs>
</svg>
