<svg width="40" height="40" viewBox="0 0 40 40" fill="none" xmlns="http://www.w3.org/2000/svg">
<g clip-path="url(#clip0_6_389)">
<path d="M20.0001 20.0627C20.0001 20.4627 20.1199 20.8626 20.34 21.1625L30.3401 36.1625C30.7001 36.7026 31.2999 37.0626 32.0001 37.0626H38.0001C39.0999 37.0626 40 36.1625 40 35.0628C40 34.6625 39.8799 34.2626 39.6602 33.9627L30.4001 20.0627L39.6602 6.16248C39.8799 5.86255 40 5.46265 40 5.06274C40 3.96265 39.0999 3.0625 38.0001 3.0625H32.0001C31.2999 3.0625 30.7001 3.42249 30.3401 3.96265L20.34 18.9627C20.1199 19.2626 20.0001 19.6625 20.0001 20.0627V20.0627Z" fill="#0047FF"/>
<path d="M-0.000228246 20.0627C-0.000228246 20.4627 0.119889 20.8626 0.339981 21.1625L10.3397 36.1625C10.6997 36.7026 11.2999 37.0626 11.9998 37.0626H17.9998C19.0999 37.0626 20 36.1625 20 35.0628C20 34.6625 19.8799 34.2626 19.6598 33.9627L10.3998 20.0627L19.6598 6.16248C19.8799 5.86255 20 5.46265 20 5.06274C20 3.96265 19.0999 3.0625 17.9998 3.0625H11.9998C11.2999 3.0625 10.6997 3.42249 10.3397 3.96265L0.339981 18.9627C0.119889 19.2626 -0.000228246 19.6625 -0.000228246 20.0627V20.0627Z" fill="#0047FF"/>
</g>
<defs>
<clipPath id="clip0_6_389">
<rect width="40" height="40" fill="white" transform="matrix(-1 0 0 1 40 0)"/>
</clipPath>
</defs>
</svg>
