<svg width="14" height="14" viewBox="0 0 14 14" fill="none" xmlns="http://www.w3.org/2000/svg">
<path d="M3.45662 0.332579L2.78259 1.0064C2.56101 1.2399 2.45019 1.51261 2.45019 1.82392C2.45019 2.14164 2.56101 2.41112 2.78259 2.63279L7.14991 6.99998L2.78271 11.3671C2.56114 11.5888 2.45032 11.8583 2.45032 12.1759C2.45032 12.4874 2.56114 12.76 2.78271 12.9936L3.45675 13.6585C3.68427 13.8862 3.95692 14 4.27446 14C4.59791 14 4.86748 13.8861 5.08311 13.6586L10.9329 7.80879C11.1605 7.59304 11.2743 7.32359 11.2743 7.00002C11.2743 6.68251 11.1605 6.40989 10.9329 6.18243L5.08311 0.332611C4.86141 0.110943 4.59187 3.12786e-05 4.27446 3.12924e-05C3.96284 -1.67408e-07 3.69034 0.110912 3.45662 0.332579Z" fill="#0047FF"/>
</svg>
