<?xml version="1.0" encoding="UTF-8"?>
<svg width="60px" height="60px" viewBox="0 0 60 60" version="1.1" xmlns="http://www.w3.org/2000/svg" xmlns:xlink="http://www.w3.org/1999/xlink">
    <title>Airboard Go</title>
    <g id="Airboard-Go" stroke="none" stroke-width="1" fill="none" fill-rule="evenodd">
        <g id="Group" transform="translate(9.191128, 5.000000)" stroke="#0047FF" stroke-width="3">
            <path d="M22.0133361,22.1472723 L22.0133361,27.1071429 C22.0133361,29.0301295 23.1919076,30.6428571 24.370479,31.8214286 C25.5490504,33 31.4419076,38.8928571 31.4419076,38.8928571 L33.7990504,49.5" id="Path" stroke-linecap="round" stroke-linejoin="round"></path>
            <line x1="20.8347647" y1="49.5" x2="27.0738272" y2="34.5249241" id="Path" stroke-linecap="round" stroke-linejoin="round"></line>
            <line x1="23.1432915" y1="30.3710491" x2="16.120479" y2="49.5" id="Path" stroke-linecap="round" stroke-linejoin="round"></line>
            <path d="M27.3169076,0 C25.0393183,0 23.1919076,1.84682143 23.1919076,4.125 L23.1919076,5.30357143 C23.1919076,7.58160268 25.0393183,9.42857143 27.3169076,9.42857143 C29.5944968,9.42857143 31.4419076,7.58160268 31.4419076,5.30357143 L31.4419076,4.125 C31.4419076,1.84682143 29.5944968,0 27.3169076,0 Z" id="Stroke-88"></path>
            <path d="M30.2633361,20.9564732 L37.3347647,27.1071429 M38.560479,49.5 L36.1797647,36.5357143 L30.2633361,28.2857143 L30.2633361,16.5 C30.2633361,14.4731518 28.8519968,13.6768795 26.7276218,12.9642857 C25.1277111,12.4275937 22.1930683,12.6012857 21.3548093,13.9528125 C20.5165504,15.3044866 17.2990504,22.3928571 17.2990504,22.3928571 L17.2990504,29.0868482 L12.7350326,36.9931473 M6.10262184,49.5 L6.10262184,48.4793571 L12.7350326,36.9931473 L7.22079148,33.8102679 C6.65802363,33.4848348 5.93762184,33.6779732 5.61204148,34.241625 L0.158202198,43.6865491 C-0.167378159,44.2502009 0.0256129127,44.9710446 0.589853984,45.2964777 L6.10262184,48.4793571" id="Stroke-89" stroke-linecap="round" stroke-linejoin="round"></path>
        </g>
    </g>
</svg>