<?xml version="1.0" encoding="UTF-8"?>
<svg width="60px" height="60px" viewBox="0 0 60 60" version="1.1" xmlns="http://www.w3.org/2000/svg" xmlns:xlink="http://www.w3.org/1999/xlink">
    <title>Artboard Register</title>
    <g id="Artboard-Register" stroke="none" stroke-width="1" fill="none" fill-rule="evenodd" stroke-linecap="round" stroke-linejoin="round">
        <g id="Airboard-Register" transform="translate(14.000000, 4.000000)" stroke="#0047FF" stroke-width="3">
            <path d="M11.4016103,26.1287854 L14.9098858,29.9292271 L22.8032207,21.3780194 M9.12128827,51.3072465 L25.0835428,51.3072465 C28.2762787,51.3072465 29.8727892,51.3072465 31.0921914,50.6858588 C32.1647979,50.1394366 33.0370211,49.2672134 33.5834433,48.1946069 C34.204831,46.9752047 34.204831,45.3786942 34.204831,42.1859583 L34.204831,9.12128827 C34.204831,5.92855234 34.204831,4.33215587 33.5834433,3.11269663 C33.0370211,2.04000463 32.1647979,1.16789545 31.0921914,0.62135926 C29.8727892,0 28.2762787,0 25.0835428,0 L9.12128827,0 C5.92855234,0 4.33215587,0 3.11269663,0.62135926 C2.04000463,1.16789545 1.16789545,2.04000463 0.62135926,3.11269663 C0,4.33215587 0,5.92852383 0,9.12128827 L0,42.1859583 C0,45.3786942 0,46.9752047 0.62135926,48.1946069 C1.16789545,49.2672134 2.04000463,50.1394366 3.11269663,50.6858588 C4.33215587,51.3072465 5.92852383,51.3072465 9.12128827,51.3072465 Z" id="Shape"></path>
        </g>
    </g>
</svg>