<?xml version="1.0" encoding="UTF-8"?>
<svg width="60px" height="60px" viewBox="0 0 60 60" version="1.1" xmlns="http://www.w3.org/2000/svg" xmlns:xlink="http://www.w3.org/1999/xlink">
    <title>Airboard Scan</title>
    <g id="Airboard-Scan" stroke="none" stroke-width="1" fill="none" fill-rule="evenodd" stroke-linecap="round">
        <g id="Group" transform="translate(6.500000, 6.500000)" stroke="#0047FF" stroke-width="3">
            <g id="scan-(1)" stroke-linejoin="round">
                <path d="M13.078125,0 L9.3,0 C6.04470938,0 4.417035,0 3.17368312,0.633533438 C2.07997406,1.19077781 1.19077781,2.07997406 0.633533438,3.17368312 C0,4.417035 0,6.04470938 0,9.3 L0,13.078125 M33.421875,0 L37.2,0 C40.4552906,0 42.0830812,0 43.326375,0.633533438 C44.4199969,1.19077781 45.3093094,2.07997406 45.8664375,3.17368312 C46.5,4.417035 46.5,6.04468031 46.5,9.3 L46.5,13.078125 M46.5,33.421875 L46.5,37.2 C46.5,40.4552906 46.5,42.0830812 45.8664375,43.326375 C45.3093094,44.4199969 44.4199969,45.3093094 43.326375,45.8664375 C42.0830812,46.5 40.4552906,46.5 37.2,46.5 L33.421875,46.5 M0,33.421875 L0,37.2 C0,40.4552906 0,42.0830812 0.633533438,43.326375 C1.19077781,44.4199969 2.07997406,45.3093094 3.17368312,45.8664375 C4.417035,46.5 6.04470938,46.5 9.3,46.5 L13.078125,46.5" id="Shape"></path>
            </g>
            <line x1="5.71398305" y1="23.261822" x2="45.7839388" y2="23.261822" id="Line" stroke-dasharray="5,6"></line>
        </g>
    </g>
</svg>